<svg width="3900" height="806" xmlns="http://www.w3.org/2000/svg" xmlns:xlink="http://www.w3.org/1999/xlink" xml:space="preserve" overflow="hidden"><g transform="translate(-220 -834)"><g><path d="M441.727 1129.91 405.972 995.395 540.482 1031.15Z" stroke="#FFFFFF" stroke-width="165" stroke-linecap="butt" stroke-linejoin="round" stroke-miterlimit="10" stroke-opacity="1" fill="#FEA51C" fill-rule="evenodd" fill-opacity="1"/><path d="M511.724 1437.71C502.064 1489.13 452.553 1522.98 401.136 1513.32 365.331 1506.6 336.557 1479.93 327.128 1444.74L327.128 1444.74C340.668 1495.28 392.61 1525.26 443.143 1511.72 478.333 1502.29 504.997 1473.52 511.724 1437.71Z" stroke="#FFFFFF" stroke-width="210.833" stroke-linecap="butt" stroke-linejoin="round" stroke-miterlimit="10" stroke-opacity="1" fill="#FEA51C" fill-rule="evenodd" fill-opacity="1"/><path d="M1272.96 1149.43C1286.47 1149.43 1296.81 1153.55 1303.98 1161.78 1311.16 1170.01 1314.74 1180.45 1314.74 1193.11 1314.74 1204.93 1311.58 1213.68 1305.25 1219.38 1298.92 1225.08 1292.17 1227.5 1284.99 1226.66 1281.62 1226.24 1277.92 1225.92 1273.91 1225.71 1269.91 1225.5 1265.58 1225.39 1260.94 1225.39 1241.53 1225.39 1225.17 1231.62 1211.88 1244.07 1198.59 1256.52 1191.94 1274.77 1191.94 1298.82L1191.94 1420.36C1191.94 1448.21 1178.65 1462.13 1152.06 1462.13 1125.48 1462.13 1112.18 1448.21 1112.18 1420.36L1112.18 1198.81C1112.18 1170.95 1126.11 1157.03 1153.96 1157.03 1162.82 1157.03 1170.84 1159.24 1178.01 1163.68 1185.19 1168.11 1188.78 1176.44 1188.78 1188.68L1188.78 1198.17C1196.37 1183.4 1207.98 1171.59 1223.59 1162.73 1239.2 1153.86 1255.66 1149.43 1272.96 1149.43ZM934.019 1149.43C969.045 1149.43 999.218 1159.14 1024.54 1178.55 1035.93 1186.99 1041.1 1196.49 1040.05 1207.04 1038.99 1217.59 1033.4 1226.45 1023.27 1233.62 1013.14 1240.8 1004.39 1243.96 997.003 1243.12 989.618 1242.27 980.017 1238.05 968.201 1230.46 958.495 1224.55 947.101 1221.59 934.019 1221.59 913.763 1221.59 897.411 1229.09 884.962 1244.07 872.513 1259.05 866.288 1280.89 866.288 1309.58 866.288 1337.86 872.513 1359.48 884.962 1374.46 897.411 1389.45 913.763 1396.94 934.019 1396.94 946.679 1396.94 957.651 1394.4 966.935 1389.34 977.907 1382.59 987.402 1378.26 995.42 1376.36 1003.44 1374.46 1012.51 1377.1 1022.64 1384.28 1032.77 1391.87 1038.57 1400.73 1040.05 1410.86 1041.52 1420.99 1036.99 1430.27 1026.44 1438.71 1001.12 1458.97 970.311 1469.1 934.019 1469.1 905.745 1469.1 880.32 1462.56 857.743 1449.47 835.166 1436.39 817.442 1417.82 804.571 1393.77 791.7 1369.72 785.264 1341.65 785.264 1309.58 785.264 1277.09 791.7 1248.92 804.571 1225.08 817.442 1201.23 835.166 1182.67 857.743 1169.37 880.32 1156.08 905.745 1149.43 934.019 1149.43ZM570.537 1007.01C603.453 1007.01 632.043 1012.92 656.308 1024.73 680.573 1036.55 700.513 1051.32 716.127 1069.04 724.567 1079.17 727.732 1089.19 725.622 1099.11 723.512 1109.03 717.182 1117.99 706.632 1126.01 696.082 1134.03 686.165 1137.09 676.881 1135.19 667.597 1133.29 658.313 1127.7 649.029 1118.42 639.745 1109.13 628.773 1101.32 616.113 1094.99 603.453 1088.66 587.839 1085.5 569.271 1085.5 549.437 1085.5 533.295 1089.61 520.846 1097.84 508.397 1106.07 502.173 1118.84 502.173 1136.14 502.173 1142.89 503.966 1149.75 507.553 1156.71 511.14 1163.68 519.58 1170.53 532.873 1177.28 546.166 1184.04 567.372 1191 596.49 1198.17 645.864 1209.99 681.628 1227.61 703.783 1251.03 725.938 1274.45 737.016 1303.25 737.016 1337.43 737.016 1380.9 722.351 1414.13 693.022 1437.13 663.693 1460.13 624.131 1471.63 574.335 1471.63 542.685 1471.63 513.145 1466.04 485.715 1454.86 458.285 1443.67 434.864 1424.79 415.452 1398.2 407.434 1386.81 404.796 1376.26 407.539 1366.55 410.282 1356.85 417.351 1348.83 428.745 1342.5 439.717 1336.17 449.739 1334.37 458.812 1337.12 467.885 1339.86 476.853 1346.08 485.715 1355.79 496.265 1367.61 508.925 1376.79 523.695 1383.33 538.465 1389.87 556.4 1393.14 577.5 1393.14 606.618 1393.14 626.03 1388.18 635.736 1378.26 645.442 1368.35 650.295 1355.16 650.295 1338.7 650.295 1328.15 647.868 1319.08 643.015 1311.48 638.162 1303.88 627.612 1296.61 611.365 1289.64 595.118 1282.68 570.115 1275.19 536.355 1267.17 495.421 1257.46 465.248 1241.85 445.836 1220.33 426.424 1198.81 416.718 1172.01 416.718 1139.94 416.718 1113.35 423.048 1090.14 435.708 1070.31 448.368 1050.47 466.197 1034.97 489.196 1023.78 512.195 1012.6 539.309 1007.01 570.537 1007.01Z" stroke="#FFFFFF" stroke-width="165" stroke-linecap="butt" stroke-linejoin="round" stroke-miterlimit="10" stroke-opacity="1" fill="#FEA51C" fill-rule="evenodd" fill-opacity="1"/><text fill="#000000" fill-opacity="0" font-family="Arial,Arial_MSFontService,sans-serif" font-size="464.622" direction="ltr" writing-mode="lr-tb" x="406.491" y="1413.55">Scr</text><path d="M1491.2 1331.46C1488.18 1331.43 1485.03 1331.53 1481.76 1331.74 1462.35 1332.58 1446.94 1337.54 1435.55 1346.61 1424.16 1355.69 1418.67 1365.29 1419.09 1375.41 1419.51 1382.59 1422.79 1388.18 1428.9 1392.19 1435.02 1396.2 1444.41 1397.99 1457.07 1397.57 1479.44 1396.3 1497.27 1391.98 1510.56 1384.59 1523.85 1377.21 1530.08 1366.97 1529.23 1353.89 1528.81 1344.19 1524.07 1337.86 1514.99 1334.9 1508.19 1332.69 1500.26 1331.54 1491.2 1331.46ZM2070.11 1149.43C2105.14 1149.43 2135.31 1159.14 2160.63 1178.55 2172.03 1186.99 2177.2 1196.49 2176.14 1207.04 2175.09 1217.59 2169.49 1226.45 2159.37 1233.62 2149.24 1240.8 2140.48 1243.96 2133.1 1243.12 2125.71 1242.27 2116.11 1238.05 2104.29 1230.46 2094.59 1224.55 2083.19 1221.59 2070.11 1221.59 2049.86 1221.59 2033.5 1229.09 2021.06 1244.07 2008.61 1259.05 2002.38 1280.89 2002.38 1309.58 2002.38 1337.86 2008.61 1359.48 2021.06 1374.46 2033.5 1389.45 2049.86 1396.94 2070.11 1396.94 2082.77 1396.94 2093.74 1394.4 2103.03 1389.34 2114 1382.59 2123.5 1378.26 2131.51 1376.36 2139.53 1374.46 2148.6 1377.1 2158.73 1384.28 2168.86 1391.87 2174.66 1400.73 2176.14 1410.86 2177.62 1420.99 2173.08 1430.27 2162.53 1438.71 2137.21 1458.97 2106.4 1469.1 2070.11 1469.1 2041.84 1469.1 2016.41 1462.56 1993.84 1449.47 1971.26 1436.39 1953.54 1417.82 1940.66 1393.77 1927.79 1369.72 1921.36 1341.65 1921.36 1309.58 1921.36 1277.09 1927.79 1248.92 1940.66 1225.08 1953.54 1201.23 1971.26 1182.67 1993.84 1169.37 2016.41 1156.08 2041.84 1149.43 2070.11 1149.43ZM1484.29 1149.43C1523.54 1149.43 1553.29 1157.45 1573.54 1173.49 1593.8 1189.52 1603.93 1218.64 1603.93 1260.84L1603.93 1393.77C1603.93 1397.99 1604.14 1400.94 1604.56 1402.63 1605.83 1408.54 1608.25 1412.44 1611.84 1414.34 1615.43 1416.24 1619.12 1417.51 1622.92 1418.14 1626.72 1418.77 1629.99 1419.62 1632.73 1420.67 1635.47 1421.73 1636.84 1424.37 1636.84 1428.59 1636.84 1436.6 1634.63 1443.78 1630.2 1450.11 1625.77 1456.44 1618.49 1460.66 1608.36 1462.77 1603.72 1463.61 1598.86 1464.35 1593.8 1464.98 1588.74 1465.62 1583.46 1465.93 1577.98 1465.93 1553.08 1465.93 1537.25 1457.49 1530.5 1440.61 1511.09 1455.38 1487.25 1463.82 1458.97 1465.93 1425.63 1467.62 1397.89 1460.45 1375.73 1444.41 1353.58 1428.37 1342.5 1405.16 1342.5 1374.78 1342.5 1353.26 1348.94 1334.8 1361.81 1319.39 1374.68 1303.99 1391.35 1291.96 1411.81 1283.31 1432.28 1274.66 1453.49 1270.12 1475.43 1269.7 1485.14 1268.86 1494.42 1269.6 1503.28 1271.92 1512.14 1274.24 1520.37 1277.3 1527.97 1281.1L1527.97 1260.84C1527.97 1243.12 1524.17 1231.62 1516.57 1226.34 1508.98 1221.07 1498.22 1218.43 1484.29 1218.43 1472.9 1218.43 1461.19 1219.8 1449.16 1222.54 1437.13 1225.29 1425.42 1228.98 1414.03 1233.62 1401.79 1238.69 1391.35 1240.48 1382.7 1239 1374.04 1237.53 1366.76 1231.93 1360.86 1222.23 1355.37 1212.52 1354.1 1203.13 1357.06 1194.06 1360.01 1184.99 1367.82 1177.71 1380.48 1172.22 1395.67 1165.47 1412.02 1159.98 1429.54 1155.76 1447.05 1151.54 1465.3 1149.43 1484.29 1149.43ZM1763.44 1051.32C1789.61 1051.32 1802.69 1065.24 1802.69 1093.1L1802.69 1157.03 1843.2 1157.03C1871.05 1157.03 1884.98 1168.42 1884.98 1191.21 1884.98 1214 1871.26 1225.39 1843.83 1225.39L1802.69 1225.39 1802.69 1364.65C1802.69 1377.73 1805.96 1386.6 1812.5 1391.24 1819.04 1395.88 1828.43 1398.2 1840.67 1398.2 1855.02 1398.2 1865.99 1400.21 1873.59 1404.22 1881.18 1408.22 1884.98 1417.19 1884.98 1431.12 1884.98 1442.51 1881.81 1450.95 1875.48 1456.44 1869.15 1461.92 1860.93 1465.41 1850.8 1466.88 1840.67 1468.36 1829.91 1469.1 1818.51 1469.1 1798.26 1469.1 1781.06 1466.88 1766.93 1462.45 1752.79 1458.02 1742.03 1449.69 1734.64 1437.45 1727.26 1425.21 1723.56 1407.91 1723.56 1385.54L1723.56 1225.39 1708.37 1225.39C1680.52 1225.39 1666.59 1214 1666.59 1191.21 1666.59 1180.24 1669.55 1171.8 1675.46 1165.89 1681.36 1159.98 1692.13 1157.03 1707.74 1157.03L1723.56 1157.03 1723.56 1093.1C1723.56 1079.59 1727.05 1069.25 1734.01 1062.08 1740.97 1054.9 1750.78 1051.32 1763.44 1051.32ZM2288.16 1012.07C2314.74 1012.07 2328.03 1026 2328.03 1053.85L2328.03 1191.21C2333.94 1180.24 2343.44 1170.53 2356.52 1162.09 2369.6 1153.65 2385.22 1149.43 2403.36 1149.43 2435.01 1149.43 2460.86 1159.56 2480.9 1179.82 2500.95 1200.07 2510.97 1230.03 2510.97 1269.7L2510.97 1420.36C2510.97 1448.21 2497.68 1462.13 2471.09 1462.13 2444.51 1462.13 2431.21 1448.21 2431.21 1420.36L2431.21 1289.33C2431.21 1266.96 2426.89 1250.08 2418.24 1238.69 2409.59 1227.29 2397.88 1221.59 2383.11 1221.59 2367.07 1221.59 2353.88 1227.4 2343.54 1239 2333.2 1250.61 2328.03 1268.86 2328.03 1293.76L2328.03 1420.36C2328.03 1448.21 2314.74 1462.13 2288.16 1462.13 2261.57 1462.13 2248.28 1448.21 2248.28 1420.36L2248.28 1053.85C2248.28 1026 2261.57 1012.07 2288.16 1012.07Z" stroke="#FFFFFF" stroke-width="165" stroke-linecap="butt" stroke-linejoin="round" stroke-miterlimit="10" stroke-opacity="1" fill="#15C2FD" fill-rule="evenodd" fill-opacity="1"/><text fill="#000000" fill-opacity="0" font-family="Arial,Arial_MSFontService,sans-serif" font-size="457.026" direction="ltr" writing-mode="lr-tb" x="1342.5" y="1411.97">atch</text><path d="M2630.15 1267.17 2781.44 1267.17C2792.84 1267.17 2802.54 1271.18 2810.56 1279.2 2818.58 1287.22 2822.59 1296.92 2822.59 1308.32 2822.59 1319.29 2818.58 1328.78 2810.56 1336.8 2802.54 1344.82 2792.84 1348.83 2781.44 1348.83L2630.15 1348.83C2618.76 1348.83 2609.05 1344.82 2601.04 1336.8 2593.02 1328.78 2589.01 1319.29 2589.01 1308.32 2589.01 1296.92 2593.02 1287.22 2601.04 1279.2 2609.05 1271.18 2618.76 1267.17 2630.15 1267.17Z" stroke="#FFFFFF" stroke-width="165" stroke-linecap="butt" stroke-linejoin="round" stroke-miterlimit="10" stroke-opacity="1" fill="#15C2FD" fill-rule="evenodd" fill-opacity="1"/><text fill="#000000" fill-opacity="0" font-family="Arial,Arial_MSFontService,sans-serif" font-size="81.657" direction="ltr" writing-mode="lr-tb" x="2589.01" y="1338.62">-</text><path d="M3308.61 1019.03C3336.04 1019.03 3349.75 1032.96 3349.75 1060.81L3349.75 1386.17 3535.22 1386.17C3563.07 1386.17 3577 1398.83 3577 1424.15 3577 1449.47 3563.07 1462.13 3535.22 1462.13L3309.24 1462.13C3281.39 1462.13 3267.46 1448.21 3267.46 1420.36L3267.46 1060.81C3267.46 1032.96 3281.18 1019.03 3308.61 1019.03ZM2947.1 1019.03C2974.53 1019.03 2988.24 1032.96 2988.24 1060.81L2988.24 1386.17 3173.71 1386.17C3201.56 1386.17 3215.49 1398.83 3215.49 1424.15 3215.49 1449.47 3201.56 1462.13 3173.71 1462.13L2947.73 1462.13C2919.88 1462.13 2905.95 1448.21 2905.95 1420.36L2905.95 1060.81C2905.95 1032.96 2919.67 1019.03 2947.1 1019.03Z" stroke="#FFFFFF" stroke-width="165" stroke-linecap="butt" stroke-linejoin="round" stroke-miterlimit="10" stroke-opacity="1" fill="#15C2FD" fill-rule="evenodd" fill-opacity="1"/><text fill="#000000" fill-opacity="0" font-family="Arial,Arial_MSFontService,sans-serif" font-size="443.1" direction="ltr" writing-mode="lr-tb" x="2905.95" y="1406.75">LL</text><path d="M3678.35 1019.03C3700.29 1019.03 3716.75 1028.53 3727.72 1047.52L3831.53 1227.92 3934.08 1048.15C3940.83 1036.34 3948.53 1028.53 3957.18 1024.73 3965.83 1020.93 3977.33 1019.03 3991.68 1019.03 4019.53 1019.03 4033.46 1032.96 4033.46 1060.81L4033.46 1420.36C4033.46 1448.21 4019.53 1462.13 3991.68 1462.13 3963.83 1462.13 3949.9 1448.21 3949.9 1420.36L3949.9 1161.46 3871.41 1304.52C3861.28 1323.93 3847.78 1333.64 3830.9 1333.64 3814.02 1333.64 3800.52 1323.93 3790.39 1304.52L3711.9 1161.46 3711.9 1420.36C3711.9 1448.21 3698.18 1462.13 3670.75 1462.13 3642.9 1462.13 3628.97 1448.21 3628.97 1420.36L3628.97 1060.81C3628.97 1044.78 3633.19 1033.8 3641.63 1027.9 3650.07 1021.99 3662.31 1019.03 3678.35 1019.03Z" stroke="#FFFFFF" stroke-width="165" stroke-linecap="butt" stroke-linejoin="round" stroke-miterlimit="10" stroke-opacity="1" fill="#15C2FD" fill-rule="evenodd" fill-opacity="1"/><text fill="#000000" fill-opacity="0" font-family="Arial,Arial_MSFontService,sans-serif" font-size="443.1" direction="ltr" writing-mode="lr-tb" x="3628.97" y="1406.75">M</text><path d="M1491.2 1331.46C1488.18 1331.43 1485.03 1331.53 1481.76 1331.74 1462.35 1332.58 1446.94 1337.54 1435.55 1346.61 1424.16 1355.69 1418.67 1365.29 1419.09 1375.41 1419.51 1382.59 1422.78 1388.18 1428.9 1392.19 1435.02 1396.2 1444.41 1397.99 1457.07 1397.57 1479.44 1396.3 1497.27 1391.98 1510.56 1384.59 1523.85 1377.21 1530.08 1366.97 1529.23 1353.89 1528.81 1344.19 1524.06 1337.86 1514.99 1334.9 1508.19 1332.69 1500.26 1331.54 1491.2 1331.46ZM2070.11 1149.43C2105.14 1149.43 2135.31 1159.14 2160.63 1178.55 2172.03 1186.99 2177.2 1196.49 2176.14 1207.04 2175.09 1217.59 2169.49 1226.45 2159.37 1233.62 2149.24 1240.8 2140.48 1243.96 2133.1 1243.12 2125.71 1242.27 2116.11 1238.05 2104.29 1230.46 2094.59 1224.55 2083.19 1221.59 2070.11 1221.59 2049.86 1221.59 2033.5 1229.09 2021.06 1244.07 2008.61 1259.05 2002.38 1280.89 2002.38 1309.58 2002.38 1337.86 2008.61 1359.48 2021.06 1374.46 2033.5 1389.45 2049.86 1396.94 2070.11 1396.94 2082.77 1396.94 2093.74 1394.4 2103.03 1389.34 2114 1382.59 2123.5 1378.26 2131.51 1376.36 2139.53 1374.46 2148.6 1377.1 2158.73 1384.28 2168.86 1391.87 2174.66 1400.73 2176.14 1410.86 2177.62 1420.99 2173.08 1430.27 2162.53 1438.71 2137.21 1458.97 2106.4 1469.1 2070.11 1469.1 2041.84 1469.1 2016.41 1462.56 1993.84 1449.47 1971.26 1436.39 1953.54 1417.82 1940.66 1393.77 1927.79 1369.72 1921.36 1341.65 1921.36 1309.58 1921.36 1277.09 1927.79 1248.92 1940.66 1225.08 1953.54 1201.23 1971.26 1182.67 1993.84 1169.37 2016.41 1156.08 2041.84 1149.43 2070.11 1149.43ZM1484.29 1149.43C1523.54 1149.43 1553.29 1157.45 1573.54 1173.49 1593.8 1189.52 1603.93 1218.64 1603.93 1260.84L1603.93 1393.77C1603.93 1397.99 1604.14 1400.94 1604.56 1402.63 1605.83 1408.54 1608.25 1412.44 1611.84 1414.34 1615.43 1416.24 1619.12 1417.51 1622.92 1418.14 1626.72 1418.77 1629.99 1419.62 1632.73 1420.67 1635.47 1421.73 1636.84 1424.37 1636.84 1428.59 1636.84 1436.6 1634.63 1443.78 1630.2 1450.11 1625.77 1456.44 1618.49 1460.66 1608.36 1462.77 1603.72 1463.61 1598.86 1464.35 1593.8 1464.98 1588.74 1465.62 1583.46 1465.93 1577.98 1465.93 1553.08 1465.93 1537.25 1457.49 1530.5 1440.61 1511.09 1455.38 1487.25 1463.82 1458.97 1465.93 1425.63 1467.62 1397.89 1460.45 1375.73 1444.41 1353.58 1428.37 1342.5 1405.16 1342.5 1374.78 1342.5 1353.26 1348.94 1334.8 1361.81 1319.39 1374.68 1303.99 1391.35 1291.96 1411.81 1283.31 1432.28 1274.66 1453.49 1270.12 1475.43 1269.7 1485.14 1268.86 1494.42 1269.6 1503.28 1271.92 1512.14 1274.24 1520.37 1277.3 1527.97 1281.1L1527.97 1260.84C1527.97 1243.12 1524.17 1231.62 1516.57 1226.34 1508.98 1221.07 1498.22 1218.43 1484.29 1218.43 1472.9 1218.43 1461.19 1219.8 1449.16 1222.54 1437.13 1225.29 1425.42 1228.98 1414.03 1233.62 1401.79 1238.69 1391.35 1240.48 1382.7 1239 1374.04 1237.53 1366.76 1231.93 1360.86 1222.23 1355.37 1212.52 1354.1 1203.13 1357.06 1194.06 1360.01 1184.99 1367.82 1177.71 1380.48 1172.22 1395.67 1165.47 1412.02 1159.98 1429.54 1155.76 1447.05 1151.54 1465.3 1149.43 1484.29 1149.43ZM1272.96 1149.43C1286.47 1149.43 1296.81 1153.55 1303.98 1161.78 1311.16 1170.01 1314.74 1180.45 1314.74 1193.11 1314.74 1204.93 1311.58 1213.68 1305.25 1219.38 1298.92 1225.08 1292.17 1227.5 1284.99 1226.66 1281.62 1226.24 1277.92 1225.92 1273.91 1225.71 1269.91 1225.5 1265.58 1225.39 1260.94 1225.39 1241.53 1225.39 1225.17 1231.62 1211.88 1244.07 1198.59 1256.52 1191.94 1274.77 1191.94 1298.82L1191.94 1420.36C1191.94 1448.21 1178.65 1462.13 1152.06 1462.13 1125.48 1462.13 1112.18 1448.21 1112.18 1420.36L1112.18 1198.81C1112.18 1170.95 1126.11 1157.03 1153.96 1157.03 1162.82 1157.03 1170.84 1159.24 1178.01 1163.68 1185.19 1168.11 1188.78 1176.44 1188.78 1188.68L1188.78 1198.17C1196.37 1183.4 1207.98 1171.59 1223.59 1162.73 1239.2 1153.86 1255.66 1149.43 1272.96 1149.43ZM934.019 1149.43C969.045 1149.43 999.218 1159.14 1024.54 1178.55 1035.93 1186.99 1041.1 1196.49 1040.05 1207.04 1038.99 1217.59 1033.4 1226.45 1023.27 1233.62 1013.14 1240.8 1004.39 1243.96 997.003 1243.12 989.618 1242.27 980.017 1238.05 968.201 1230.46 958.495 1224.55 947.101 1221.59 934.019 1221.59 913.763 1221.59 897.411 1229.09 884.962 1244.07 872.513 1259.05 866.288 1280.89 866.288 1309.58 866.288 1337.86 872.513 1359.48 884.962 1374.46 897.411 1389.45 913.763 1396.94 934.019 1396.94 946.679 1396.94 957.651 1394.4 966.935 1389.34 977.907 1382.59 987.402 1378.26 995.42 1376.36 1003.44 1374.46 1012.51 1377.1 1022.64 1384.28 1032.77 1391.87 1038.57 1400.73 1040.05 1410.86 1041.52 1420.99 1036.99 1430.27 1026.44 1438.71 1001.12 1458.97 970.311 1469.1 934.019 1469.1 905.745 1469.1 880.32 1462.56 857.743 1449.47 835.166 1436.39 817.442 1417.82 804.571 1393.77 791.7 1369.72 785.264 1341.65 785.264 1309.58 785.264 1277.09 791.7 1248.92 804.571 1225.08 817.442 1201.23 835.166 1182.67 857.743 1169.37 880.32 1156.08 905.745 1149.43 934.019 1149.43ZM1763.44 1051.32C1789.61 1051.32 1802.69 1065.24 1802.69 1093.1L1802.69 1157.03 1843.2 1157.03C1871.05 1157.03 1884.98 1168.42 1884.98 1191.21 1884.98 1214 1871.26 1225.39 1843.83 1225.39L1802.69 1225.39 1802.69 1364.65C1802.69 1377.73 1805.96 1386.6 1812.5 1391.24 1819.04 1395.88 1828.43 1398.2 1840.67 1398.2 1855.02 1398.2 1865.99 1400.21 1873.59 1404.22 1881.18 1408.22 1884.98 1417.19 1884.98 1431.12 1884.98 1442.51 1881.81 1450.95 1875.48 1456.44 1869.15 1461.92 1860.93 1465.41 1850.8 1466.88 1840.67 1468.36 1829.91 1469.1 1818.51 1469.1 1798.26 1469.1 1781.06 1466.88 1766.92 1462.45 1752.79 1458.02 1742.03 1449.69 1734.64 1437.45 1727.26 1425.21 1723.56 1407.91 1723.56 1385.54L1723.56 1225.39 1708.37 1225.39C1680.52 1225.39 1666.59 1214 1666.59 1191.21 1666.59 1180.24 1669.55 1171.8 1675.46 1165.89 1681.36 1159.98 1692.13 1157.03 1707.74 1157.03L1723.56 1157.03 1723.56 1093.1C1723.56 1079.59 1727.05 1069.25 1734.01 1062.08 1740.97 1054.9 1750.78 1051.32 1763.44 1051.32ZM2288.16 1012.07C2314.74 1012.07 2328.03 1026 2328.03 1053.85L2328.03 1191.21C2333.94 1180.24 2343.44 1170.53 2356.52 1162.09 2369.6 1153.65 2385.22 1149.43 2403.36 1149.43 2435.01 1149.43 2460.86 1159.56 2480.9 1179.82 2500.95 1200.07 2510.97 1230.03 2510.97 1269.7L2510.97 1420.36C2510.97 1448.21 2497.68 1462.13 2471.09 1462.13 2444.51 1462.13 2431.21 1448.21 2431.21 1420.36L2431.21 1289.33C2431.21 1266.96 2426.89 1250.08 2418.24 1238.69 2409.59 1227.29 2397.88 1221.59 2383.11 1221.59 2367.07 1221.59 2353.88 1227.4 2343.54 1239 2333.2 1250.61 2328.03 1268.86 2328.03 1293.76L2328.03 1420.36C2328.03 1448.21 2314.74 1462.13 2288.16 1462.13 2261.57 1462.13 2248.28 1448.21 2248.28 1420.36L2248.28 1053.85C2248.28 1026 2261.57 1012.07 2288.16 1012.07ZM570.537 1007.01C603.453 1007.01 632.043 1012.92 656.308 1024.73 680.573 1036.55 700.513 1051.32 716.127 1069.04 724.567 1079.17 727.732 1089.19 725.622 1099.11 723.512 1109.03 717.182 1117.99 706.632 1126.01 696.082 1134.03 686.165 1137.09 676.881 1135.19 667.597 1133.29 658.313 1127.7 649.029 1118.42 639.745 1109.13 628.773 1101.32 616.113 1094.99 603.453 1088.66 587.839 1085.5 569.271 1085.5 549.437 1085.5 533.295 1089.61 520.846 1097.84 508.397 1106.07 502.173 1118.84 502.173 1136.14 502.173 1142.89 503.966 1149.75 507.553 1156.71 511.14 1163.68 519.58 1170.53 532.873 1177.28 546.166 1184.04 567.372 1191 596.49 1198.17 645.864 1209.99 681.628 1227.61 703.783 1251.03 725.938 1274.45 737.016 1303.25 737.016 1337.43 737.016 1380.9 722.351 1414.13 693.022 1437.13 663.693 1460.13 624.131 1471.63 574.335 1471.63 542.685 1471.63 513.145 1466.04 485.715 1454.86 458.285 1443.67 434.864 1424.79 415.452 1398.2 407.434 1386.81 404.796 1376.26 407.539 1366.55 410.282 1356.85 417.351 1348.83 428.745 1342.5 439.717 1336.17 449.739 1334.37 458.812 1337.12 467.885 1339.86 476.853 1346.08 485.715 1355.79 496.265 1367.61 508.925 1376.79 523.695 1383.33 538.465 1389.87 556.4 1393.14 577.5 1393.14 606.618 1393.14 626.03 1388.18 635.736 1378.26 645.442 1368.35 650.295 1355.16 650.295 1338.7 650.295 1328.15 647.868 1319.08 643.015 1311.48 638.162 1303.88 627.612 1296.61 611.365 1289.64 595.118 1282.68 570.115 1275.19 536.355 1267.17 495.421 1257.46 465.248 1241.85 445.836 1220.33 426.424 1198.81 416.718 1172.01 416.718 1139.94 416.718 1113.35 423.048 1090.14 435.708 1070.31 448.368 1050.47 466.197 1034.97 489.196 1023.78 512.195 1012.6 539.309 1007.01 570.537 1007.01Z" stroke="#FEA51C" stroke-width="28" stroke-linecap="butt" stroke-linejoin="round" stroke-miterlimit="10" stroke-opacity="1" fill="#FEA51C" fill-rule="evenodd" fill-opacity="1"/><text fill="#000000" fill-opacity="0" font-family="Arial,Arial_MSFontService,sans-serif" font-size="464.622" direction="ltr" writing-mode="lr-tb" x="406.491" y="1413.55">Scratch</text><path d="M2630.15 1267.17 2781.44 1267.17C2792.84 1267.17 2802.54 1271.18 2810.56 1279.2 2818.58 1287.22 2822.59 1296.92 2822.59 1308.32 2822.59 1319.29 2818.58 1328.78 2810.56 1336.8 2802.54 1344.82 2792.84 1348.83 2781.44 1348.83L2630.15 1348.83C2618.76 1348.83 2609.05 1344.82 2601.04 1336.8 2593.02 1328.78 2589.01 1319.29 2589.01 1308.32 2589.01 1296.92 2593.02 1287.22 2601.04 1279.2 2609.05 1271.18 2618.76 1267.17 2630.15 1267.17Z" stroke="#15C2FD" stroke-width="28" stroke-linecap="butt" stroke-linejoin="round" stroke-miterlimit="10" stroke-opacity="1" fill="#15C2FD" fill-rule="evenodd" fill-opacity="1"/><text fill="#000000" fill-opacity="0" font-family="Arial,Arial_MSFontService,sans-serif" font-size="81.657" direction="ltr" writing-mode="lr-tb" x="2589.01" y="1338.62">-</text><path d="M3678.35 1019.03C3700.29 1019.03 3716.75 1028.53 3727.72 1047.52L3831.53 1227.92 3934.08 1048.15C3940.83 1036.34 3948.53 1028.53 3957.18 1024.73 3965.83 1020.93 3977.33 1019.03 3991.68 1019.03 4019.53 1019.03 4033.46 1032.96 4033.46 1060.81L4033.46 1420.36C4033.46 1448.21 4019.53 1462.13 3991.68 1462.13 3963.83 1462.13 3949.9 1448.21 3949.9 1420.36L3949.9 1161.46 3871.41 1304.52C3861.28 1323.93 3847.78 1333.64 3830.9 1333.64 3814.02 1333.64 3800.52 1323.93 3790.39 1304.52L3711.9 1161.46 3711.9 1420.36C3711.9 1448.21 3698.18 1462.13 3670.75 1462.13 3642.9 1462.13 3628.97 1448.21 3628.97 1420.36L3628.97 1060.81C3628.97 1044.78 3633.19 1033.8 3641.63 1027.9 3650.07 1021.99 3662.31 1019.03 3678.35 1019.03ZM3308.61 1019.03C3336.04 1019.03 3349.75 1032.96 3349.75 1060.81L3349.75 1386.17 3535.22 1386.17C3563.07 1386.17 3577 1398.83 3577 1424.15 3577 1449.47 3563.07 1462.13 3535.22 1462.13L3309.24 1462.13C3281.39 1462.13 3267.46 1448.21 3267.46 1420.36L3267.46 1060.81C3267.46 1032.96 3281.18 1019.03 3308.61 1019.03ZM2947.1 1019.03C2974.53 1019.03 2988.24 1032.96 2988.24 1060.81L2988.24 1386.17 3173.71 1386.17C3201.56 1386.17 3215.49 1398.83 3215.49 1424.15 3215.49 1449.47 3201.56 1462.13 3173.71 1462.13L2947.73 1462.13C2919.88 1462.13 2905.95 1448.21 2905.95 1420.36L2905.95 1060.81C2905.95 1032.96 2919.67 1019.03 2947.1 1019.03Z" stroke="#15C2FD" stroke-width="28" stroke-linecap="butt" stroke-linejoin="round" stroke-miterlimit="10" stroke-opacity="1" fill="#15C2FD" fill-rule="evenodd" fill-opacity="1"/><text fill="#000000" fill-opacity="0" font-family="Arial,Arial_MSFontService,sans-serif" font-size="443.1" direction="ltr" writing-mode="lr-tb" x="2905.95" y="1406.75">LLM</text><path d="M441.727 1129.9 405.972 995.395 540.482 1031.15Z" stroke="#FEA51C" stroke-width="35.5208" stroke-linecap="butt" stroke-linejoin="round" stroke-miterlimit="10" stroke-opacity="1" fill="#FEA51C" fill-rule="evenodd" fill-opacity="1"/><path d="M511.724 1437.71C502.064 1489.13 452.553 1522.98 401.136 1513.32 365.331 1506.6 336.557 1479.93 327.128 1444.74L327.128 1444.74C340.668 1495.27 392.61 1525.26 443.143 1511.72 478.333 1502.29 504.997 1473.52 511.724 1437.71Z" stroke="#FEA51C" stroke-width="81.3542" stroke-linecap="butt" stroke-linejoin="round" stroke-miterlimit="10" stroke-opacity="1" fill="#FEA51C" fill-rule="evenodd" fill-opacity="1"/></g></g></svg>